<?xml version="1.0" standalone="no"?>
<!DOCTYPE svg PUBLIC "-//W3C//DTD SVG 20010904//EN"
 "http://www.w3.org/TR/2001/REC-SVG-20010904/DTD/svg10.dtd">
<svg version="1.0" xmlns="http://www.w3.org/2000/svg"
 width="1650.000000pt" height="1275.000000pt" viewBox="0 0 1650.000000 1275.000000"
 preserveAspectRatio="xMidYMid meet">

<g transform="translate(0.000000,1275.000000) scale(0.100000,-0.100000)"
fill="#000000" stroke="none">
<path d="M12505 8081 c-111 -29 -179 -117 -179 -231 0 -141 93 -234 234 -234
138 0 234 96 234 234 0 95 -44 169 -125 210 -42 22 -121 32 -164 21z m133 -37
c137 -57 175 -231 74 -337 -47 -50 -97 -70 -167 -65 -73 4 -120 31 -162 92
-37 52 -44 145 -15 202 54 104 169 151 270 108z"/>
<path d="M12450 7965 c0 -8 7 -15 15 -15 12 0 15 -18 15 -100 0 -82 -3 -100
-15 -100 -8 0 -15 -7 -15 -15 0 -12 13 -15 55 -15 42 0 55 3 55 15 0 8 -7 15
-15 15 -11 0 -15 11 -15 40 0 35 3 40 23 40 36 0 59 -23 66 -66 6 -35 9 -39
39 -42 24 -2 32 1 32 12 0 9 -4 16 -10 16 -5 0 -10 11 -10 24 0 13 -9 35 -20
49 -17 22 -18 26 -5 37 24 20 19 86 -7 104 -32 22 -188 23 -188 1z m153 -32
c4 -2 7 -15 7 -28 0 -26 -25 -45 -59 -45 -18 0 -21 6 -21 46 l0 46 33 -7 c17
-4 35 -9 40 -12z"/>
<path d="M7310 7842 l0 -159 128 -23 c70 -12 133 -25 140 -27 9 -4 12 -84 12
-356 l0 -351 -64 64 c-35 34 -88 78 -117 97 -189 119 -490 104 -691 -33 -266
-182 -405 -589 -369 -1078 23 -301 103 -501 265 -661 136 -135 276 -188 491
-188 194 1 311 51 442 189 81 86 73 89 93 -36 6 -36 13 -77 16 -92 l6 -28 354
0 354 0 0 159 0 159 -67 15 c-38 9 -94 21 -125 28 l-58 12 0 1234 0 1233 -405
0 -405 0 0 -158z m22 -1093 c94 -20 170 -71 230 -153 l28 -39 0 -421 0 -421
-45 -52 c-84 -96 -232 -146 -364 -123 -155 27 -236 119 -289 329 -20 82 -22
383 -3 481 59 312 210 448 443 399z"/>
<path d="M3472 7653 l3 -157 115 -23 c63 -12 125 -25 138 -28 l22 -5 0 -708
c0 -397 5 -749 10 -802 45 -424 326 -704 790 -786 128 -23 390 -23 525 0 362
61 635 260 740 541 59 157 58 134 62 975 3 520 7 777 14 781 6 3 69 17 140 30
l129 23 0 158 0 158 -545 0 -545 0 0 -158 0 -158 128 -23 c70 -13 133 -26 140
-28 19 -8 17 -1442 -3 -1536 -49 -234 -210 -360 -475 -374 -295 -16 -484 100
-558 340 -14 45 -16 148 -19 809 l-4 757 23 6 c13 3 77 16 143 28 l120 22 3
158 3 157 -551 0 -551 0 3 -157z"/>
<path d="M11490 7806 c0 -6 -799 -2286 -804 -2295 -3 -4 -46 -14 -96 -20 l-90
-13 0 -159 0 -159 450 0 450 0 0 159 0 158 -86 16 c-48 9 -89 18 -91 21 -3 3
21 86 53 185 l57 181 428 0 c235 0 430 -4 433 -8 9 -16 116 -355 113 -359 -2
-1 -43 -10 -90 -19 l-87 -16 0 -159 0 -159 450 0 450 0 0 159 0 159 -90 13
c-50 6 -94 17 -98 23 -4 6 -185 524 -403 1151 l-397 1140 -276 3 c-152 1 -276
1 -276 -2z m430 -1072 l147 -459 -300 -3 c-165 -1 -301 -1 -303 1 -7 7 292
927 300 924 6 -2 76 -210 156 -463z"/>
<path d="M9330 7164 c-182 -22 -346 -95 -463 -204 -132 -123 -226 -288 -278
-486 -22 -82 -24 -108 -24 -339 0 -231 2 -257 23 -335 95 -346 340 -583 677
-655 107 -23 346 -24 472 -1 169 29 374 109 470 182 l32 24 -68 155 c-37 85
-70 158 -73 161 -4 3 -44 -12 -90 -34 -159 -75 -273 -102 -438 -102 -199 0
-324 70 -407 227 -31 57 -63 163 -63 211 l0 22 590 0 590 0 0 199 c0 230 -10
320 -51 446 -86 268 -288 453 -557 511 -69 14 -279 26 -342 18z m229 -421 c70
-22 124 -72 162 -148 27 -55 33 -79 37 -160 l5 -95 -329 2 -329 3 4 40 c10
121 92 279 167 326 83 51 188 63 283 32z"/>
</g>
</svg>
